<svg xmlns="http://www.w3.org/2000/svg" viewBox="0 0 21.12 18.56"><defs><style>.cls-1{fill:#272525;}</style></defs><g id="Object"><path class="cls-1" d="M20.83,5.24H7l-1-5A.3.3,0,0,0,5.67,0H.28A.29.29,0,0,0,0,.28.29.29,0,0,0,.28.57H5.44l2.5,12.35v5.36a.27.27,0,0,0,.28.28h7.51a.28.28,0,1,0,0-.56H8.5V13.18h7.73a.27.27,0,0,0,.24-.14l4.6-7.36a.28.28,0,0,0,0-.29A.28.28,0,0,0,20.83,5.24Zm-5,2.34H12V5.81h3.83Zm0,2.84H12V8.15h3.83ZM11.48,5.81V7.58H7.43L7.07,5.81Zm0,2.34v2.27H8.16a.23.23,0,0,0-.14,0L7.55,8.15Zm-3,4.46L8.12,11h3.36v1.58a.09.09,0,0,0,0,0Zm3.59,0V11h3.83v1.63H12A.09.09,0,0,0,12,12.56Zm4.4-.53V11h.65Zm1-1.61h-1V8.15h2.42Zm1.76-2.83H16.44V5.81h3.88Z"/></g></svg>